#!OML:ASF E:\Steps\Project 1\Capture day 1\Session 2\Subject.ASF
:FULLY-SPECIFIED
:DEGREES
830
root 8.92594 22.771 -12.6877 -155.289 0.603169 180.027
lowerback -23.9198 -3.21821 -6.43959
upperback 0.302177 -2.18438 0.0498699
thorax 14.1106 -1.34548 3.00033
lowerneck -2.78031 -2.72752 -2.0188
upperneck 22.065 -2.64878 3.29488
head 7.27272 -0.554838 1.30569
rclavicle 3.69739e-014 2.46493e-014
rhumerus -45.3012 -18.2622 -73.0061
rradius 31.1037
rwrist -0.633041
rhand -8.64581 -52.5392
rfingers 7.12502
rthumb 17.2874 -81.7903
lclavicle 3.69739e-014 2.46493e-014
lhumerus -28.805 -1.78363 82.1039
lradius 28.8205
lwrist 0.230271
lhand -20.7239 -13.5019
lfingers 7.12502
lthumb 5.64095 16.4031
rfemur -38.5103 9.70794 16.7602
rtibia 29.6365
rfoot -22.5581 -7.73656
rtoes -39.884
lfemur -30.8 -8.7563 -19.9849
ltibia 14.5756
lfoot -7.04199 2.27992
ltoes -33.6544
831
root 8.92709 22.767 -12.7131 -155.366 0.359129 179.867
lowerback -23.8595 -3.30699 -6.5391
upperback 0.258862 -2.27817 0.0690866
thorax 14.0411 -1.3914 3.04794
lowerneck -2.51877 -2.71025 -1.97648
upperneck 21.9736 -2.5919 3.16635
head 7.19257 -0.533488 1.26219
rclavicle 4.77083e-015 -1.59028e-014
rhumerus -45.3549 -18.3843 -72.9742
rradius 31.1686
rwrist -0.538333
rhand -9.10851 -51.917
rfingers 7.12502
rthumb 16.842 -81.2067
lclavicle 4.77083e-015 -1.59028e-014
lhumerus -28.8105 -1.86399 82.2162
lradius 28.6901
lwrist 0.349493
lhand -20.7089 -13.9661
lfingers 7.12502
lthumb 5.65541 15.9384
rfemur -37.9087 10.0366 16.5045
rtibia 28.175
rfoot -21.7269 -7.69754
rtoes -41.1218
lfemur -30.6946 -8.78794 -20.2195
ltibia 14.713
lfoot -7.13894 1.92875
ltoes -33.597
832
root 8.93129 22.762 -12.7339 -155.336 0.149852 179.731
lowerback -23.8718 -3.37886 -6.60108
upperback 0.156847 -2.34181 0.0491144
thorax 13.9367 -1.41292 3.0403
lowerneck -2.25847 -2.52563 -2.1026
upperneck 21.9537 -2.32101 3.297
head 7.13534 -0.394083 1.34759
rclavicle -2.78299e-015 -9.54166e-015
rhumerus -45.47 -18.765 -72.8199
rradius 31.0063
rwrist -0.232017
rhand -9.77662 -51.0378
rfingers 7.12502
rthumb 16.1988 -80.381
lclavicle -2.78299e-015 -9.54166e-015
lhumerus -28.8701 -1.90811 82.2318
lradius 28.5845
lwrist 0.341455
lhand -20.5498 -13.9765
lfingers 7.12502
lthumb 5.80903 15.9239
rfemur -37.5862 10.3414 16.2415
rtibia 27.1457
rfoot -22.0052 -7.50779
rtoes -40.4495
lfemur -30.7583 -8.68855 -20.4029
ltibia 14.8992
lfoot -7.21234 1.52656
ltoes -34.1909
833
root 8.94087 22.7564 -12.7587 -155.258 -0.105138 179.685
lowerback -23.9879 -3.08793 -6.75058
upperback 0.0404917 -2.48151 0.0292696
thorax 13.8594 -1.71895 2.99564
lowerneck -2.74544 -2.65514 -1.56867
upperneck 22.5351 -2.39716 2.68831
head 7.40097 -0.413644 1.05646
rclavicle 1.23246e-014 2.14687e-014
rhumerus -45.6103 -18.951 -72.8421
rradius 30.9137
rwrist -0.243485
rhand -10.1258 -50.7279
rfingers 7.12502
rthumb 15.8625 -80.0982
lclavicle 1.23246e-014 2.14687e-014
lhumerus -28.9801 -1.95629 82.1819
lradius 28.5308
lwrist 0.166636
lhand -20.3223 -13.5106
lfingers 7.12502
lthumb 6.02867 16.3836
rfemur -37.3963 10.5436 16.1729
rtibia 26.3776
rfoot -22.1623 -7.24536
rtoes -39.8265
lfemur -30.8538 -8.59868 -20.4098
ltibia 15.0382
lfoot -7.28816 1.15527
ltoes -34.6072
834
root 8.9497 22.7523 -12.7932 -155.262 -0.344368 179.579
lowerback -24.1738 -3.15848 -6.86388
upperback -0.0454562 -2.54423 0.0298474
thorax 13.8742 -1.75879 3.03341
lowerneck -2.61257 -2.58938 -1.65484
upperneck 22.3642 -2.36292 2.99477
head 7.32461 -0.382035 1.17324
rclavicle -6.75868e-015 3.33958e-014
rhumerus -45.7476 -18.8306 -73.0046
rradius 31.0204
rwrist -0.418798
rhand -10.3624 -50.5016
rfingers 7.12502
rthumb 15.6346 -79.8898
lclavicle -6.75868e-015 3.33958e-014
lhumerus -29.2413 -2.06835 82.2076
lradius 28.6199
lwrist 0.102061
lhand -20.2251 -13.1308
lfingers 7.12502
lthumb 6.12252 16.7608
rfemur -36.8882 10.7132 16.1149
rtibia 25.4127
rfoot -21.5428 -7.18146
rtoes -39.8418
lfemur -30.7271 -8.60462 -20.4951
ltibia 15.0041
lfoot -7.28614 0.858165
ltoes -35.2027
835
root 8.95122 22.744 -12.8413 -155.312 -0.702906 179.526
lowerback -24.5547 -3.26132 -6.82102
upperback -0.0780135 -2.67725 0.0707178
thorax 14.0646 -1.82451 2.99473
lowerneck -2.27248 -2.52876 -1.58089
upperneck 22.1453 -2.26282 2.90231
head 7.18778 -0.338939 1.13792
rclavicle 2.18663e-015 -2.06736e-014
rhumerus -45.8927 -18.5065 -73.2225
rradius 31.2868
rwrist -0.717759
rhand -10.0244 -50.8497
rfingers 7.12502
rthumb 15.9602 -80.2121
lclavicle 2.18663e-015 -2.06736e-014
lhumerus -29.4742 -2.13066 82.2799
lradius 28.6116
lwrist 0.228292
lhand -20.1657 -12.9206
lfingers 7.12502
lthumb 6.1798 16.9693
rfemur -36.0805 10.7407 16.2015
rtibia 24.2535
rfoot -20.9351 -7.05522
rtoes -38.7612
lfemur -30.3795 -8.73182 -20.5794
ltibia 14.7908
lfoot -7.25282 0.550739
ltoes -35.2678
